<?xml version="1.0" encoding="UTF-8"?>
<svg id="b" data-name="Layer 2" xmlns="http://www.w3.org/2000/svg" xmlns:xlink="http://www.w3.org/1999/xlink" viewBox="0 0 440 159.33">
  <defs>
    <linearGradient id="d" data-name="New Gradient Swatch 1" x1="0" y1="79.66" x2="440" y2="79.66" gradientUnits="userSpaceOnUse">
      <stop offset="0" stop-color="#10b981"/>
      <stop offset="1" stop-color="#0ea5e9"/>
    </linearGradient>
  </defs>
  <g id="c" data-name="Layer 1">
    <path d="m95.49,111.95c30.22,0,55.06-48.62,86.79-78.47-19.59,0-50.98,53.1-89.3,53.1S15.55,34.25,0,34.25c15.47,13.79,52.88,77.7,95.49,77.7Zm202.63,11.54c-32.96,0-22.44-92.3-74.12-92.3s-75.94,103.4-121.04,103.4C49.57,134.6,12.7,60.53,0,60.43c8.69,7.54,44.03,98.89,105.34,98.89s81.21-96.17,117.56-96.17c28.68,0,21.69,96,73.8,96S387.59,20.5,440,0c-75.76,0-104.55,123.49-141.89,123.49Z" fill="url(#d)" stroke-width="0"/>
  </g>
</svg>