<?xml version="1.0" encoding="UTF-8"?>
<svg id="b" data-name="Layer 2" xmlns="http://www.w3.org/2000/svg" xmlns:xlink="http://www.w3.org/1999/xlink" viewBox="0 0 440 279.53">
  <defs>
    <linearGradient id="d" data-name="New Gradient Swatch 1" x1="0" y1="139.76" x2="440" y2="139.76" gradientUnits="userSpaceOnUse">
      <stop offset="0" stop-color="#10b981"/>
      <stop offset="1" stop-color="#0ea5e9"/>
    </linearGradient>
  </defs>
  <g id="c" data-name="Layer 1">
    <path d="m91.83,215.12c.37.4.55.93.55,1.6v3.66c0,.67-.18,1.19-.55,1.56-.37.37-.88.55-1.56.55h-30.58v21.33h28.75c.67,0,1.19.2,1.56.6.37.4.55.93.55,1.6v3.66c0,.61-.18,1.12-.55,1.51-.37.4-.88.6-1.56.6h-28.75v24.72c0,.61-.2,1.12-.6,1.51-.4.4-.93.6-1.6.6h-4.58c-.67,0-1.19-.2-1.56-.6-.37-.4-.55-.9-.55-1.51v-59.78c0-.67.18-1.2.55-1.6.37-.4.88-.6,1.56-.6h37.35c.67,0,1.19.2,1.56.6Zm18.4-2.15h-5.77c-.61,0-1.11.2-1.51.6-.4.4-.6.9-.6,1.51v4.94c0,.61.2,1.11.6,1.51.4.4.9.6,1.51.6h5.77c.61,0,1.11-.2,1.51-.6.4-.4.59-.9.59-1.51v-4.94c0-.61-.2-1.11-.59-1.51-.4-.4-.9-.6-1.51-.6Zm-.64,18.04h-4.39c-.61,0-1.11.2-1.51.6-.4.4-.6.9-.6,1.51v43.4c0,.61.2,1.12.6,1.51.4.4.9.6,1.51.6h4.39c.61,0,1.1-.2,1.46-.6.37-.4.55-.9.55-1.51v-43.4c0-.61-.18-1.11-.55-1.51-.36-.4-.86-.6-1.46-.6Zm49.58,1.69c-2.78-1.74-6.15-2.61-10.12-2.61s-6.88.66-9.29,1.97c-2.41,1.31-4.41,3.01-6,5.08v-4.03c0-.61-.2-1.11-.59-1.51-.4-.4-.9-.6-1.51-.6h-4.3c-.61,0-1.11.2-1.51.6-.4.4-.6.9-.6,1.51v43.4c0,.61.2,1.12.6,1.51.4.4.9.6,1.51.6h4.58c.61,0,1.11-.2,1.51-.6.4-.4.6-.9.6-1.51v-25.36c0-4.27,1.15-7.61,3.44-10.02,2.29-2.41,5.32-3.62,9.11-3.62,4.03,0,7.08,1.21,9.16,3.62,2.07,2.41,3.11,5.75,3.11,10.02v25.36c0,.61.2,1.12.6,1.51.39.4.9.6,1.51.6h4.58c.61,0,1.1-.2,1.46-.6.37-.4.55-.9.55-1.51v-25.82c0-4.09-.7-7.67-2.1-10.76-1.41-3.08-3.49-5.49-6.27-7.23Zm82.26-18.17h-4.76c-1.34,0-2.11.52-2.29,1.56l-9.25,47.24-9.98-32.41c-.12-.55-.4-1.05-.82-1.51-.43-.46-1.1-.69-2.01-.69h-3.39c-.86,0-1.51.23-1.97.69s-.78.96-.96,1.51l-9.89,32.41-9.34-47.24c-.18-1.04-.91-1.56-2.2-1.56h-4.76c-.49,0-.92.18-1.28.55-.37.37-.55.79-.55,1.28v.37c0,.18.03.4.09.64l11.81,58.78c.18.79.5,1.4.96,1.83.46.43,1.09.64,1.88.64h3.57c.85,0,1.51-.21,1.97-.64.46-.43.81-.98,1.05-1.65l11.26-34.88,11.35,34.88c.18.67.52,1.22,1.01,1.65.49.43,1.16.64,2.01.64h3.57c.79,0,1.42-.21,1.88-.64.46-.43.78-1.04.96-1.83l11.81-58.78c0-.24.01-.46.05-.64s.05-.3.05-.37c0-.49-.18-.92-.55-1.28-.36-.37-.79-.55-1.28-.55Zm49.03,26.18c.64,2.01.96,4.06.96,6.13v29.66c0,.61-.2,1.12-.6,1.51-.4.4-.9.6-1.51.6h-4.21c-.67,0-1.19-.2-1.55-.6-.37-.4-.55-.9-.55-1.51v-3.94c-.79,1.1-1.86,2.18-3.2,3.25-1.34,1.07-3.02,1.95-5.04,2.65-2.02.7-4.49,1.05-7.42,1.05s-5.83-.61-8.33-1.83c-2.51-1.22-4.52-2.87-6.04-4.94s-2.29-4.42-2.29-7.05c0-4.21,1.71-7.57,5.13-10.07,3.42-2.5,7.87-4.15,13.37-4.94l13.64-1.92v-2.66c0-2.93-.84-5.22-2.52-6.87-1.68-1.65-4.41-2.47-8.19-2.47-2.74,0-4.96.55-6.64,1.65-1.68,1.1-2.85,2.5-3.53,4.21-.37.92-1.01,1.37-1.92,1.37h-4.12c-.67,0-1.18-.2-1.51-.59-.34-.4-.5-.87-.5-1.42,0-.92.35-2.04,1.05-3.39.7-1.34,1.78-2.65,3.25-3.94,1.47-1.28,3.34-2.37,5.63-3.25,2.29-.88,5.08-1.33,8.38-1.33,3.66,0,6.75.47,9.25,1.42,2.5.95,4.47,2.21,5.9,3.8,1.43,1.59,2.47,3.39,3.11,5.4Zm-7.64,14.28l-10.62,1.56c-4.33.61-7.6,1.63-9.8,3.07-2.19,1.44-3.29,3.25-3.29,5.45,0,1.71.5,3.13,1.51,4.26,1.01,1.13,2.29,1.97,3.84,2.52,1.56.55,3.16.82,4.81.82,2.5,0,4.79-.53,6.87-1.6,2.07-1.07,3.71-2.73,4.9-4.99,1.19-2.26,1.79-5.1,1.79-8.51v-2.56Zm60.06-23.99h-4.48c-.67,0-1.18.18-1.51.55-.33.37-.56.7-.69,1.01l-13.92,36.07-14.01-36.07c-.06-.3-.27-.64-.64-1.01-.37-.37-.88-.55-1.56-.55h-4.4c-.55,0-1.01.18-1.37.55-.37.37-.55.82-.55,1.37,0,.31.06.61.18.92l16.94,42.48c.31.67.72,1.22,1.24,1.65.52.43,1.24.64,2.15.64h3.94c.98,0,1.72-.21,2.24-.64.52-.43.9-.98,1.15-1.65l17.03-42.48c.12-.3.18-.61.18-.92,0-.55-.2-1.01-.6-1.37-.4-.37-.84-.55-1.33-.55Zm47.61,10.35c1.64,3.6,2.47,7.81,2.47,12.64v1.56c0,.67-.2,1.19-.6,1.56-.4.37-.9.55-1.51.55h-31.67v.82c.12,2.5.67,4.84,1.64,7,.98,2.17,2.38,3.92,4.21,5.27,1.83,1.34,4.03,2.01,6.59,2.01,2.2,0,4.03-.33,5.49-1.01,1.46-.67,2.65-1.42,3.57-2.24.91-.82,1.53-1.45,1.83-1.88.55-.79.98-1.27,1.28-1.42s.79-.23,1.46-.23h4.39c.61,0,1.11.17,1.51.5.4.34.56.81.5,1.42-.06.92-.55,2.03-1.47,3.34-.91,1.31-2.23,2.61-3.93,3.89-1.71,1.28-3.79,2.34-6.22,3.16-2.44.82-5.25,1.24-8.42,1.24-6.29,0-11.29-1.94-15.02-5.81-3.72-3.88-5.77-9.17-6.13-15.88-.06-.79-.09-1.82-.09-3.07s.03-2.27.09-3.07c.24-4.33,1.25-8.13,3.02-11.4,1.77-3.26,4.2-5.78,7.28-7.55,3.08-1.77,6.7-2.65,10.85-2.65,4.64,0,8.53.98,11.67,2.93,3.14,1.95,5.54,4.73,7.19,8.33Zm-6.23,9.7c0-2.75-.5-5.19-1.51-7.32-1.01-2.14-2.46-3.83-4.35-5.08-1.89-1.25-4.15-1.88-6.77-1.88s-4.87.63-6.73,1.88c-1.86,1.25-3.28,2.95-4.26,5.08-.98,2.14-1.46,4.58-1.46,7.32v.27h25.08v-.27ZM95.49,111.95c30.22,0,55.06-48.62,86.79-78.47-19.59,0-50.98,53.1-89.3,53.1S15.55,34.25,0,34.25c15.47,13.79,52.88,77.7,95.49,77.7Zm202.63,11.54c-32.96,0-22.44-92.3-74.12-92.3s-75.94,103.4-121.04,103.4C49.57,134.6,12.7,60.53,0,60.43c8.69,7.54,44.03,98.89,105.34,98.89s81.21-96.17,117.56-96.17c28.68,0,21.69,96,73.8,96S387.59,20.5,440,0c-75.76,0-104.55,123.49-141.89,123.49Z" fill="url(#d)" stroke-width="0"/>
  </g>
</svg>